%TF.GenerationSoftware,KiCad,Pcbnew,9.0.7*%
%TF.CreationDate,2026-03-30T19:46:50+02:00*%
%TF.ProjectId,PicoBalloon_2026_v1,5069636f-4261-46c6-9c6f-6f6e5f323032,rev?*%
%TF.SameCoordinates,Original*%
%TF.FileFunction,Copper,L1,Top*%
%TF.FilePolarity,Positive*%
%FSLAX46Y46*%
G04 Gerber Fmt 4.6, Leading zero omitted, Abs format (unit mm)*
G04 Created by KiCad (PCBNEW 9.0.7) date 2026-03-30 19:46:50*
%MOMM*%
%LPD*%
G01*
G04 APERTURE LIST*
G04 Aperture macros list*
%AMRoundRect*
0 Rectangle with rounded corners*
0 $1 Rounding radius*
0 $2 $3 $4 $5 $6 $7 $8 $9 X,Y pos of 4 corners*
0 Add a 4 corners polygon primitive as box body*
4,1,4,$2,$3,$4,$5,$6,$7,$8,$9,$2,$3,0*
0 Add four circle primitives for the rounded corners*
1,1,$1+$1,$2,$3*
1,1,$1+$1,$4,$5*
1,1,$1+$1,$6,$7*
1,1,$1+$1,$8,$9*
0 Add four rect primitives between the rounded corners*
20,1,$1+$1,$2,$3,$4,$5,0*
20,1,$1+$1,$4,$5,$6,$7,0*
20,1,$1+$1,$6,$7,$8,$9,0*
20,1,$1+$1,$8,$9,$2,$3,0*%
G04 Aperture macros list end*
%TA.AperFunction,ComponentPad*%
%ADD10R,1.000000X1.000000*%
%TD*%
%TA.AperFunction,ComponentPad*%
%ADD11C,1.000000*%
%TD*%
%TA.AperFunction,ComponentPad*%
%ADD12R,1.700000X1.700000*%
%TD*%
%TA.AperFunction,SMDPad,CuDef*%
%ADD13RoundRect,0.250000X0.337500X0.475000X-0.337500X0.475000X-0.337500X-0.475000X0.337500X-0.475000X0*%
%TD*%
%TA.AperFunction,SMDPad,CuDef*%
%ADD14RoundRect,0.250000X-0.337500X-0.475000X0.337500X-0.475000X0.337500X0.475000X-0.337500X0.475000X0*%
%TD*%
%TA.AperFunction,SMDPad,CuDef*%
%ADD15RoundRect,0.250000X0.450000X-0.350000X0.450000X0.350000X-0.450000X0.350000X-0.450000X-0.350000X0*%
%TD*%
%TA.AperFunction,SMDPad,CuDef*%
%ADD16RoundRect,0.317500X-1.157500X-0.317500X1.157500X-0.317500X1.157500X0.317500X-1.157500X0.317500X0*%
%TD*%
%TA.AperFunction,SMDPad,CuDef*%
%ADD17RoundRect,0.150000X-0.587500X-0.150000X0.587500X-0.150000X0.587500X0.150000X-0.587500X0.150000X0*%
%TD*%
%TA.AperFunction,ViaPad*%
%ADD18C,1.500000*%
%TD*%
%TA.AperFunction,ViaPad*%
%ADD19C,0.800000*%
%TD*%
%TA.AperFunction,ViaPad*%
%ADD20C,1.200000*%
%TD*%
%TA.AperFunction,Conductor*%
%ADD21C,0.800000*%
%TD*%
%TA.AperFunction,Conductor*%
%ADD22C,1.700000*%
%TD*%
%TA.AperFunction,Conductor*%
%ADD23C,1.200000*%
%TD*%
%TA.AperFunction,Conductor*%
%ADD24C,0.450000*%
%TD*%
%TA.AperFunction,Conductor*%
%ADD25C,0.300000*%
%TD*%
%TA.AperFunction,Conductor*%
%ADD26C,0.500000*%
%TD*%
G04 APERTURE END LIST*
D10*
%TO.P,J9,1,Pin_1*%
%TO.N,GND*%
X133595000Y-102500000D03*
D11*
%TO.P,J9,2,Pin_2*%
X134865000Y-102500000D03*
%TO.P,J9,3,Pin_3*%
X136135000Y-102500000D03*
%TO.P,J9,4,Pin_4*%
X137405000Y-102500000D03*
%TD*%
D12*
%TO.P,J3,1,Pin_1*%
%TO.N,GND*%
X129500000Y-101000000D03*
%TD*%
D10*
%TO.P,J13,1,Pin_1*%
%TO.N,/LORA_ANT*%
X150000000Y-99500000D03*
%TD*%
D13*
%TO.P,C4,1*%
%TO.N,GND*%
X150537500Y-80500000D03*
%TO.P,C4,2*%
%TO.N,/GPS_VCC*%
X148462500Y-80500000D03*
%TD*%
%TO.P,C3,1*%
%TO.N,GND*%
X150537500Y-82500000D03*
%TO.P,C3,2*%
%TO.N,/GPS_VCC*%
X148462500Y-82500000D03*
%TD*%
D14*
%TO.P,C5,1*%
%TO.N,GND*%
X144425000Y-82500000D03*
%TO.P,C5,2*%
%TO.N,VBAT*%
X146500000Y-82500000D03*
%TD*%
D15*
%TO.P,R2,1*%
%TO.N,VBAT*%
X142362500Y-79950000D03*
%TO.P,R2,2*%
%TO.N,/PWR2_ENn*%
X142362500Y-77950000D03*
%TD*%
D16*
%TO.P,U2,1,GND*%
%TO.N,GND*%
X133225000Y-85500000D03*
%TO.P,U2,2,MISO*%
%TO.N,/SPI_MISO*%
X133225000Y-87500000D03*
%TO.P,U2,3,MOSI*%
%TO.N,/SPI_MOSI*%
X133225000Y-89500000D03*
%TO.P,U2,4,SCK*%
%TO.N,/SPI_SCK*%
X133225000Y-91500000D03*
%TO.P,U2,5,NSS*%
%TO.N,/SPI_SSn*%
X133225000Y-93500000D03*
%TO.P,U2,6,RESET*%
%TO.N,/LORA_RESETn*%
X133225000Y-95500000D03*
%TO.P,U2,7,DIO5*%
%TO.N,unconnected-(U2-DIO5-Pad7)*%
X133225000Y-97500000D03*
%TO.P,U2,8,GND*%
%TO.N,GND*%
X133225000Y-99500000D03*
%TO.P,U2,9,ANT*%
%TO.N,/LORA_ANT*%
X148275000Y-99500000D03*
%TO.P,U2,10,GND*%
%TO.N,GND*%
X148275000Y-97500000D03*
%TO.P,U2,11,DIO3*%
%TO.N,unconnected-(U2-DIO3-Pad11)*%
X148275000Y-95500000D03*
%TO.P,U2,12,DIO4*%
%TO.N,unconnected-(U2-DIO4-Pad12)*%
X148275000Y-93500000D03*
%TO.P,U2,13,3.3V*%
%TO.N,/LORA_VCC*%
X148275000Y-91500000D03*
%TO.P,U2,14,DIO0*%
%TO.N,unconnected-(U2-DIO0-Pad14)*%
X148275000Y-89500000D03*
%TO.P,U2,15,DIO1*%
%TO.N,unconnected-(U2-DIO1-Pad15)*%
X148275000Y-87500000D03*
%TO.P,U2,16,DIO2*%
%TO.N,unconnected-(U2-DIO2-Pad16)*%
X148275000Y-85500000D03*
%TD*%
D12*
%TO.P,J12,1,Pin_1*%
%TO.N,VBAT*%
X129500000Y-73500000D03*
%TD*%
D10*
%TO.P,J5,1,Pin_1*%
%TO.N,GND*%
X137000000Y-60000000D03*
D11*
%TO.P,J5,2,Pin_2*%
X138270000Y-60000000D03*
%TD*%
D17*
%TO.P,Q2,1,G*%
%TO.N,/PWR2_ENn*%
X144562500Y-78050000D03*
%TO.P,Q2,2,S*%
%TO.N,VBAT*%
X144562500Y-79950000D03*
%TO.P,Q2,3,D*%
%TO.N,/GPS_VCC*%
X146437500Y-79000000D03*
%TD*%
D10*
%TO.P,J11,1,Pin_1*%
%TO.N,Net-(J11-Pin_1)*%
X135500000Y-147040000D03*
D11*
%TO.P,J11,2,Pin_2*%
X135500000Y-145770000D03*
%TO.P,J11,3,Pin_3*%
%TO.N,unconnected-(J11-Pin_3-Pad3)*%
X135500000Y-144500000D03*
%TD*%
D10*
%TO.P,J8,1,Pin_1*%
%TO.N,GND*%
X150000000Y-97500000D03*
%TD*%
%TO.P,J7,1,Pin_1*%
%TO.N,Net-(J7-Pin_1)*%
X133500000Y-56000000D03*
D11*
%TO.P,J7,2,Pin_2*%
X133500000Y-54730000D03*
%TD*%
D10*
%TO.P,J6,1,Pin_1*%
%TO.N,Net-(J6-Pin_1)*%
X137500000Y-56000000D03*
D11*
%TO.P,J6,2,Pin_2*%
X137500000Y-54730000D03*
%TD*%
D10*
%TO.P,J4,1,Pin_1*%
%TO.N,/GPS_ANT*%
X134000000Y-60000000D03*
D11*
%TO.P,J4,2,Pin_2*%
X132730000Y-60000000D03*
%TD*%
D18*
%TO.N,*%
X150000000Y-74000000D03*
X129500000Y-71500000D03*
D19*
%TO.N,GND*%
X137050000Y-74000000D03*
X139000000Y-95000000D03*
X145000000Y-75000000D03*
X138500000Y-70000000D03*
X133950000Y-72000000D03*
X138499000Y-68000000D03*
X143000000Y-75000000D03*
X146000000Y-100500000D03*
X137050000Y-70000000D03*
X133950000Y-74000000D03*
X137533645Y-96970439D03*
X146500000Y-77500000D03*
X146000000Y-98500000D03*
X138500000Y-62000000D03*
X150537500Y-95500000D03*
D20*
X138000000Y-88051000D03*
X138405733Y-91243062D03*
D19*
X138000000Y-81500000D03*
X148500000Y-101500000D03*
X132500000Y-62000000D03*
X140200000Y-84480000D03*
X142000000Y-100500000D03*
X133949000Y-80728231D03*
X138500000Y-72000000D03*
X139000000Y-74500000D03*
X137050000Y-68000000D03*
X133950000Y-70000000D03*
X139500000Y-91500000D03*
X134000000Y-100500000D03*
X135603816Y-83855713D03*
X137050000Y-72000000D03*
X134514534Y-82437460D03*
X132499000Y-66000000D03*
X133950000Y-78000000D03*
X139500000Y-88000000D03*
X138499000Y-63962537D03*
X133949000Y-68000000D03*
X150537500Y-93500000D03*
X141500000Y-86500000D03*
D20*
X144223000Y-82500000D03*
D19*
X133949000Y-76000000D03*
X150500000Y-101500000D03*
X148275000Y-97500000D03*
X139079858Y-96921564D03*
X132500000Y-70000000D03*
X132000000Y-72000000D03*
X137050000Y-78000000D03*
X141901000Y-82240000D03*
X141901000Y-84401000D03*
X137050000Y-80000000D03*
X142000000Y-76500000D03*
X132499000Y-63962537D03*
X137050000Y-76000000D03*
X133949000Y-66000000D03*
X132499000Y-68000000D03*
X137050000Y-64000720D03*
X133949000Y-63962537D03*
X137050000Y-66000000D03*
X144500000Y-100500000D03*
X140200000Y-82240000D03*
X138186660Y-84925562D03*
X137000000Y-95000000D03*
X140000000Y-100500000D03*
X132000000Y-100500000D03*
X138499000Y-66000000D03*
D20*
X147117500Y-75530000D03*
D19*
%TO.N,VBAT*%
X146000000Y-96000000D03*
D20*
X145899000Y-85500000D03*
X135586575Y-88015671D03*
X136000000Y-100500000D03*
X137962500Y-100500000D03*
D19*
X146500000Y-82500000D03*
D20*
X132600000Y-83965000D03*
D19*
%TO.N,/MCU_TX*%
X146100000Y-93574275D03*
X140903384Y-96096616D03*
%TO.N,/MCU_RX*%
X140862525Y-94997375D03*
X144500000Y-93500000D03*
%TO.N,/PWR2_ENn*%
X141082643Y-88582643D03*
%TO.N,/LORA_RESETn*%
X132416772Y-95504303D03*
%TO.N,/SPI_SSn*%
X132474277Y-92835000D03*
%TO.N,/SPI_SCK*%
X135275000Y-91215564D03*
%TO.N,/SPI_MOSI*%
X132500000Y-89500000D03*
%TO.N,/SPI_MISO*%
X132400000Y-87500000D03*
%TO.N,/GPS_VCC*%
X148150000Y-82410134D03*
D20*
%TO.N,/LORA_VCC*%
X149237500Y-91500000D03*
X148275000Y-91500000D03*
%TD*%
D21*
%TO.N,GND*%
X150537500Y-82500000D02*
X150537500Y-83225000D01*
X138740000Y-82240000D02*
X138000000Y-81500000D01*
X137000000Y-60000000D02*
X138270000Y-60000000D01*
D22*
X135500000Y-63621320D02*
X135500000Y-64500000D01*
D21*
X141901000Y-82240000D02*
X138740000Y-82240000D01*
X150537500Y-83225000D02*
X149661500Y-84101000D01*
D23*
X138000000Y-88858488D02*
X138500000Y-89358488D01*
D21*
X148275000Y-97500000D02*
X150500000Y-97500000D01*
X150537500Y-93500000D02*
X150537500Y-82500000D01*
X150500000Y-97500000D02*
X150537500Y-97462500D01*
D24*
X137533645Y-96970439D02*
X137563206Y-97000000D01*
D23*
X144425000Y-82500000D02*
X144425000Y-83526000D01*
D24*
X137563206Y-97000000D02*
X139001422Y-97000000D01*
D21*
X150537500Y-93500000D02*
X150500000Y-93500000D01*
X149661500Y-84101000D02*
X145000000Y-84101000D01*
X150537500Y-80500000D02*
X150537500Y-82500000D01*
D24*
X139001422Y-97000000D02*
X139079858Y-96921564D01*
D21*
X141901000Y-84401000D02*
X141901000Y-82240000D01*
X150537500Y-95500000D02*
X150537500Y-93500000D01*
D23*
X144425000Y-83526000D02*
X145000000Y-84101000D01*
X138000000Y-88051000D02*
X138000000Y-88858488D01*
D21*
X150537500Y-97462500D02*
X150537500Y-95500000D01*
D23*
X138500000Y-89358488D02*
X138500000Y-91148795D01*
X138500000Y-91148795D02*
X138405733Y-91243062D01*
D22*
X137000000Y-60000000D02*
G75*
G03*
X135500008Y-63621320I3621300J-3621300D01*
G01*
D23*
%TO.N,VBAT*%
X135551000Y-93000000D02*
X135551000Y-92698490D01*
X135551000Y-89722382D02*
X135551000Y-88698490D01*
X145899000Y-87163988D02*
X145899000Y-85500000D01*
D21*
X135500000Y-95706713D02*
X135500000Y-99500000D01*
D23*
X135500000Y-88647490D02*
X135500000Y-88352510D01*
D21*
X146500000Y-81775000D02*
X144675000Y-79950000D01*
X144675000Y-79950000D02*
X142362500Y-79950000D01*
D25*
X135500000Y-95706713D02*
X135793287Y-96000000D01*
D23*
X129500000Y-73500000D02*
X131500000Y-73500000D01*
D25*
X135793287Y-96000000D02*
X139361790Y-96000000D01*
D23*
X135736532Y-92466564D02*
X135793182Y-92466564D01*
X135793182Y-92466564D02*
X136526000Y-91733746D01*
X135500000Y-88352510D02*
X135551000Y-88301510D01*
X131500000Y-73500000D02*
X132600000Y-74600000D01*
D21*
X135500000Y-95706713D02*
X135500000Y-93051000D01*
D25*
X139361790Y-96000000D02*
X140309406Y-96947616D01*
D23*
X136526000Y-90697382D02*
X135551000Y-89722382D01*
D21*
X136500000Y-100500000D02*
X137962500Y-100500000D01*
D23*
X135551000Y-93000000D02*
X140062988Y-93000000D01*
X132600000Y-74600000D02*
X132600000Y-83965000D01*
D25*
X144052384Y-96947616D02*
X145000000Y-96000000D01*
X140309406Y-96947616D02*
X144052384Y-96947616D01*
D21*
X135500000Y-93051000D02*
X135551000Y-93000000D01*
X146500000Y-82500000D02*
X146500000Y-81775000D01*
X135500000Y-99500000D02*
X136500000Y-100500000D01*
D23*
X135551000Y-88051246D02*
X135586575Y-88015671D01*
X140062988Y-93000000D02*
X145899000Y-87163988D01*
X135551000Y-92698490D02*
X135527803Y-92675293D01*
X135551000Y-88301510D02*
X135551000Y-88051246D01*
X135551000Y-88698490D02*
X135500000Y-88647490D01*
X135527803Y-92675293D02*
X135736532Y-92466564D01*
D25*
X145000000Y-96000000D02*
X146000000Y-96000000D01*
D23*
X136526000Y-91733746D02*
X136526000Y-90697382D01*
D25*
%TO.N,/MCU_TX*%
X143415194Y-96096616D02*
X140903384Y-96096616D01*
X145937535Y-93574275D02*
X143415194Y-96096616D01*
X146100000Y-93574275D02*
X145937535Y-93574275D01*
%TO.N,/MCU_RX*%
X144500000Y-93500000D02*
X144410769Y-93589231D01*
X144410769Y-93589231D02*
X144410769Y-94089231D01*
X143502625Y-94997375D02*
X140862525Y-94997375D01*
X144410769Y-94089231D02*
X143502625Y-94997375D01*
D22*
%TO.N,Net-(J6-Pin_1)*%
X137500000Y-56000000D02*
X137500000Y-54730000D01*
%TO.N,Net-(J7-Pin_1)*%
X133500000Y-56000000D02*
X133500000Y-54730000D01*
D25*
%TO.N,/PWR2_ENn*%
X141500000Y-81000000D02*
X142823446Y-81000000D01*
X141261500Y-79051000D02*
X141261500Y-80761500D01*
X143189754Y-81366308D02*
X143189754Y-86475532D01*
X142362500Y-77950000D02*
X141261500Y-79051000D01*
X142823446Y-81000000D02*
X143189754Y-81366308D01*
X143189754Y-86475532D02*
X141082643Y-88582643D01*
D26*
X142462500Y-78050000D02*
X142362500Y-77950000D01*
X144562500Y-78050000D02*
X142462500Y-78050000D01*
D25*
X141261500Y-80761500D02*
X141500000Y-81000000D01*
%TO.N,/SPI_SSn*%
X133139277Y-93500000D02*
X133225000Y-93500000D01*
X132474277Y-92835000D02*
X133139277Y-93500000D01*
%TO.N,/SPI_SCK*%
X133225000Y-91500000D02*
X134990564Y-91500000D01*
X134990564Y-91500000D02*
X135275000Y-91215564D01*
%TO.N,/SPI_MISO*%
X132400000Y-87500000D02*
X133225000Y-87500000D01*
D21*
%TO.N,/GPS_ANT*%
X134000000Y-60000000D02*
X132730000Y-60000000D01*
D22*
%TO.N,/LORA_ANT*%
X148275000Y-99500000D02*
X150000000Y-99500000D01*
D21*
%TO.N,/GPS_VCC*%
X148462500Y-80500000D02*
X148462500Y-82500000D01*
X148150000Y-82410134D02*
X147979025Y-82410134D01*
X148462500Y-80500000D02*
X146962500Y-79000000D01*
X146962500Y-79000000D02*
X146437500Y-79000000D01*
D23*
%TO.N,/LORA_VCC*%
X149237500Y-91500000D02*
X148275000Y-91500000D01*
%TD*%
%TA.AperFunction,Conductor*%
%TO.N,GND*%
G36*
X138942539Y-61519685D02*
G01*
X138988294Y-61572489D01*
X138999500Y-61624000D01*
X138999500Y-73107317D01*
X139030044Y-73319764D01*
X139030047Y-73319774D01*
X139090517Y-73525715D01*
X139179672Y-73720938D01*
X139179679Y-73720951D01*
X139295720Y-73901514D01*
X139436275Y-74063724D01*
X139491007Y-74111149D01*
X139598487Y-74204281D01*
X139727531Y-74287211D01*
X139779048Y-74320320D01*
X139779061Y-74320327D01*
X139974284Y-74409482D01*
X139974288Y-74409483D01*
X139974290Y-74409484D01*
X140180231Y-74469954D01*
X140180232Y-74469954D01*
X140180235Y-74469955D01*
X140243584Y-74479062D01*
X140392682Y-74500500D01*
X140392683Y-74500500D01*
X148565890Y-74500500D01*
X148565892Y-74500500D01*
X148693186Y-74466392D01*
X148807314Y-74400500D01*
X148832733Y-74375080D01*
X148894052Y-74341597D01*
X148963744Y-74346581D01*
X149019678Y-74388451D01*
X149034973Y-74415309D01*
X149069058Y-74497597D01*
X149184024Y-74669657D01*
X149330342Y-74815975D01*
X149330345Y-74815977D01*
X149502402Y-74930941D01*
X149693580Y-75010130D01*
X149896530Y-75050499D01*
X149896534Y-75050500D01*
X149896535Y-75050500D01*
X150103466Y-75050500D01*
X150103467Y-75050499D01*
X150306420Y-75010130D01*
X150497598Y-74930941D01*
X150669655Y-74815977D01*
X150708983Y-74776649D01*
X150787819Y-74697814D01*
X150849142Y-74664329D01*
X150918834Y-74669313D01*
X150974767Y-74711185D01*
X150999184Y-74776649D01*
X150999500Y-74785495D01*
X150999500Y-98573084D01*
X150979815Y-98640123D01*
X150927011Y-98685878D01*
X150857853Y-98695822D01*
X150794297Y-98666797D01*
X150787819Y-98660765D01*
X150749499Y-98622445D01*
X150749494Y-98622441D01*
X150602997Y-98516006D01*
X150602996Y-98516005D01*
X150602994Y-98516004D01*
X150546024Y-98486976D01*
X150441639Y-98433788D01*
X150441636Y-98433787D01*
X150269410Y-98377829D01*
X150090551Y-98349500D01*
X150090546Y-98349500D01*
X148184454Y-98349500D01*
X148184449Y-98349500D01*
X148005589Y-98377829D01*
X147833363Y-98433787D01*
X147833360Y-98433788D01*
X147672005Y-98516004D01*
X147652679Y-98530046D01*
X147637851Y-98540818D01*
X147572047Y-98564298D01*
X147564967Y-98564500D01*
X147055078Y-98564500D01*
X147020056Y-98567256D01*
X147020050Y-98567257D01*
X146870116Y-98610818D01*
X146870113Y-98610819D01*
X146735715Y-98690301D01*
X146735707Y-98690307D01*
X146625307Y-98800707D01*
X146625301Y-98800715D01*
X146545819Y-98935113D01*
X146545818Y-98935116D01*
X146502257Y-99085050D01*
X146502256Y-99085056D01*
X146499500Y-99120078D01*
X146499500Y-99879921D01*
X146502256Y-99914943D01*
X146502257Y-99914949D01*
X146545818Y-100064883D01*
X146545819Y-100064886D01*
X146625301Y-100199284D01*
X146625307Y-100199292D01*
X146735707Y-100309692D01*
X146735711Y-100309695D01*
X146735713Y-100309697D01*
X146870112Y-100389180D01*
X146909655Y-100400668D01*
X147020050Y-100432742D01*
X147020053Y-100432742D01*
X147020055Y-100432743D01*
X147055086Y-100435500D01*
X147564967Y-100435500D01*
X147632006Y-100455185D01*
X147637844Y-100459175D01*
X147672006Y-100483996D01*
X147751145Y-100524319D01*
X147833360Y-100566211D01*
X147833363Y-100566212D01*
X147902561Y-100588695D01*
X148005591Y-100622171D01*
X148088429Y-100635291D01*
X148184449Y-100650500D01*
X148184454Y-100650500D01*
X150090551Y-100650500D01*
X150177259Y-100636765D01*
X150269409Y-100622171D01*
X150441639Y-100566211D01*
X150602994Y-100483996D01*
X150749501Y-100377553D01*
X150787819Y-100339235D01*
X150849142Y-100305750D01*
X150918834Y-100310734D01*
X150974767Y-100352606D01*
X150999184Y-100418070D01*
X150999500Y-100426916D01*
X150999500Y-101493038D01*
X150998720Y-101506922D01*
X150998720Y-101506923D01*
X150988540Y-101597264D01*
X150982362Y-101624333D01*
X150954648Y-101703537D01*
X150942600Y-101728555D01*
X150897957Y-101799604D01*
X150880644Y-101821313D01*
X150821313Y-101880644D01*
X150799604Y-101897957D01*
X150728555Y-101942600D01*
X150703537Y-101954648D01*
X150624333Y-101982362D01*
X150597264Y-101988540D01*
X150517075Y-101997576D01*
X150506921Y-101998720D01*
X150493038Y-101999500D01*
X139934107Y-101999500D01*
X139836289Y-102025710D01*
X139836288Y-102025709D01*
X139806815Y-102033607D01*
X139806814Y-102033607D01*
X139692686Y-102099500D01*
X139692683Y-102099502D01*
X137828505Y-103963681D01*
X137767182Y-103997166D01*
X137740824Y-104000000D01*
X133259176Y-104000000D01*
X133192137Y-103980315D01*
X133171495Y-103963681D01*
X131307316Y-102099502D01*
X131307314Y-102099500D01*
X131250250Y-102066554D01*
X131193187Y-102033608D01*
X131129539Y-102016554D01*
X131065892Y-101999500D01*
X131065891Y-101999500D01*
X128506962Y-101999500D01*
X128493078Y-101998720D01*
X128480553Y-101997308D01*
X128402735Y-101988540D01*
X128375666Y-101982362D01*
X128296462Y-101954648D01*
X128271444Y-101942600D01*
X128200395Y-101897957D01*
X128178686Y-101880644D01*
X128119355Y-101821313D01*
X128102042Y-101799604D01*
X128057399Y-101728555D01*
X128045351Y-101703537D01*
X128017637Y-101624333D01*
X128011459Y-101597263D01*
X128001280Y-101506922D01*
X128000500Y-101493038D01*
X128000500Y-100006961D01*
X128001280Y-99993077D01*
X128006523Y-99946543D01*
X128011459Y-99902731D01*
X128017635Y-99875670D01*
X128045353Y-99796456D01*
X128057396Y-99771450D01*
X128102046Y-99700389D01*
X128119351Y-99678690D01*
X128178690Y-99619351D01*
X128200389Y-99602046D01*
X128271450Y-99557396D01*
X128296456Y-99545353D01*
X128375670Y-99517635D01*
X128402733Y-99511459D01*
X128465419Y-99504396D01*
X128493079Y-99501280D01*
X128506962Y-99500500D01*
X130607317Y-99500500D01*
X130607318Y-99500500D01*
X130789612Y-99474290D01*
X130819764Y-99469955D01*
X130819765Y-99469954D01*
X130819769Y-99469954D01*
X131025710Y-99409484D01*
X131025713Y-99409482D01*
X131025715Y-99409482D01*
X131220938Y-99320327D01*
X131220944Y-99320323D01*
X131220950Y-99320321D01*
X131401513Y-99204281D01*
X131563724Y-99063724D01*
X131704281Y-98901513D01*
X131820321Y-98720950D01*
X131820323Y-98720944D01*
X131820327Y-98720938D01*
X131865308Y-98622441D01*
X131909484Y-98525710D01*
X131909821Y-98524561D01*
X131910038Y-98524223D01*
X131911030Y-98521565D01*
X131911608Y-98521780D01*
X131947597Y-98465785D01*
X132011154Y-98436762D01*
X132028797Y-98435500D01*
X134444906Y-98435500D01*
X134444914Y-98435500D01*
X134479945Y-98432743D01*
X134479947Y-98432742D01*
X134479949Y-98432742D01*
X134637380Y-98387004D01*
X134638046Y-98389299D01*
X134695580Y-98382191D01*
X134758547Y-98412471D01*
X134795147Y-98471988D01*
X134799500Y-98504554D01*
X134799500Y-99431006D01*
X134799500Y-99568994D01*
X134799500Y-99568996D01*
X134799499Y-99568996D01*
X134826418Y-99704322D01*
X134826421Y-99704332D01*
X134879222Y-99831807D01*
X134879225Y-99831811D01*
X134955886Y-99946543D01*
X135108491Y-100099148D01*
X135141975Y-100160470D01*
X135136991Y-100230161D01*
X135135376Y-100234267D01*
X135134107Y-100237331D01*
X135134103Y-100237341D01*
X135099500Y-100411304D01*
X135099500Y-100588695D01*
X135134103Y-100762658D01*
X135134106Y-100762667D01*
X135201983Y-100926540D01*
X135201990Y-100926553D01*
X135300535Y-101074034D01*
X135300538Y-101074038D01*
X135425961Y-101199461D01*
X135425965Y-101199464D01*
X135573446Y-101298009D01*
X135573459Y-101298016D01*
X135696363Y-101348923D01*
X135737334Y-101365894D01*
X135737336Y-101365894D01*
X135737341Y-101365896D01*
X135911304Y-101400499D01*
X135911307Y-101400500D01*
X135911309Y-101400500D01*
X136088693Y-101400500D01*
X136088694Y-101400499D01*
X136146682Y-101388964D01*
X136262658Y-101365896D01*
X136262661Y-101365894D01*
X136262666Y-101365894D01*
X136426547Y-101298013D01*
X136541209Y-101221397D01*
X136607886Y-101200520D01*
X136610100Y-101200500D01*
X137352400Y-101200500D01*
X137419439Y-101220185D01*
X137421288Y-101221396D01*
X137535953Y-101298013D01*
X137699834Y-101365894D01*
X137699836Y-101365894D01*
X137699841Y-101365896D01*
X137873804Y-101400499D01*
X137873807Y-101400500D01*
X137873809Y-101400500D01*
X138051193Y-101400500D01*
X138051194Y-101400499D01*
X138109182Y-101388964D01*
X138225158Y-101365896D01*
X138225161Y-101365894D01*
X138225166Y-101365894D01*
X138389047Y-101298013D01*
X138536535Y-101199464D01*
X138661964Y-101074035D01*
X138760513Y-100926547D01*
X138828394Y-100762666D01*
X138863000Y-100588691D01*
X138863000Y-100411309D01*
X138863000Y-100411306D01*
X138862999Y-100411304D01*
X138828396Y-100237341D01*
X138828393Y-100237332D01*
X138827123Y-100234267D01*
X138795423Y-100157734D01*
X138760516Y-100073459D01*
X138760509Y-100073446D01*
X138661964Y-99925965D01*
X138661961Y-99925961D01*
X138536538Y-99800538D01*
X138536534Y-99800535D01*
X138389053Y-99701990D01*
X138389040Y-99701983D01*
X138225167Y-99634106D01*
X138225158Y-99634103D01*
X138051194Y-99599500D01*
X138051191Y-99599500D01*
X137873809Y-99599500D01*
X137873806Y-99599500D01*
X137699841Y-99634103D01*
X137699832Y-99634106D01*
X137535952Y-99701987D01*
X137535950Y-99701988D01*
X137421291Y-99778602D01*
X137354614Y-99799480D01*
X137352400Y-99799500D01*
X136841519Y-99799500D01*
X136774480Y-99779815D01*
X136753838Y-99763181D01*
X136236819Y-99246162D01*
X136203334Y-99184839D01*
X136200500Y-99158481D01*
X136200500Y-96574500D01*
X136220185Y-96507461D01*
X136272989Y-96461706D01*
X136324500Y-96450500D01*
X139123825Y-96450500D01*
X139190864Y-96470185D01*
X139211506Y-96486819D01*
X140032792Y-97308105D01*
X140032793Y-97308106D01*
X140032795Y-97308107D01*
X140092099Y-97342345D01*
X140092102Y-97342348D01*
X140126343Y-97362116D01*
X140135520Y-97367415D01*
X140250097Y-97398116D01*
X140250100Y-97398116D01*
X144111692Y-97398116D01*
X144111693Y-97398116D01*
X144202057Y-97373902D01*
X144226271Y-97367415D01*
X144328998Y-97308105D01*
X145150284Y-96486819D01*
X145177211Y-96472115D01*
X145203030Y-96455523D01*
X145209230Y-96454631D01*
X145211607Y-96453334D01*
X145237965Y-96450500D01*
X145408482Y-96450500D01*
X145475521Y-96470185D01*
X145496158Y-96486814D01*
X145553455Y-96544111D01*
X145553459Y-96544115D01*
X145668182Y-96620771D01*
X145668195Y-96620778D01*
X145795667Y-96673578D01*
X145795672Y-96673580D01*
X145795676Y-96673580D01*
X145795677Y-96673581D01*
X145931004Y-96700500D01*
X145931007Y-96700500D01*
X146068995Y-96700500D01*
X146160041Y-96682389D01*
X146204328Y-96673580D01*
X146331811Y-96620775D01*
X146446542Y-96544114D01*
X146544114Y-96446542D01*
X146598717Y-96364822D01*
X146652329Y-96320018D01*
X146721654Y-96311311D01*
X146764941Y-96326982D01*
X146870112Y-96389180D01*
X146909655Y-96400668D01*
X147020050Y-96432742D01*
X147020053Y-96432742D01*
X147020055Y-96432743D01*
X147055086Y-96435500D01*
X147055094Y-96435500D01*
X149494906Y-96435500D01*
X149494914Y-96435500D01*
X149529945Y-96432743D01*
X149529947Y-96432742D01*
X149529949Y-96432742D01*
X149569488Y-96421254D01*
X149679888Y-96389180D01*
X149814287Y-96309697D01*
X149924697Y-96199287D01*
X150004180Y-96064888D01*
X150047743Y-95914945D01*
X150050500Y-95879914D01*
X150050500Y-95120086D01*
X150047743Y-95085055D01*
X150042314Y-95066370D01*
X150004181Y-94935116D01*
X150004180Y-94935113D01*
X150004180Y-94935112D01*
X149924697Y-94800713D01*
X149924695Y-94800711D01*
X149924692Y-94800707D01*
X149814292Y-94690307D01*
X149814284Y-94690301D01*
X149673173Y-94606849D01*
X149674912Y-94603907D01*
X149633127Y-94569198D01*
X149612050Y-94502584D01*
X149630333Y-94435149D01*
X149674438Y-94395291D01*
X149673173Y-94393151D01*
X149679888Y-94389180D01*
X149814287Y-94309697D01*
X149924697Y-94199287D01*
X150004180Y-94064888D01*
X150047743Y-93914945D01*
X150050500Y-93879914D01*
X150050500Y-93120086D01*
X150047743Y-93085055D01*
X150031794Y-93030160D01*
X150007528Y-92946636D01*
X150004180Y-92935112D01*
X149924697Y-92800713D01*
X149924695Y-92800711D01*
X149924692Y-92800707D01*
X149814292Y-92690307D01*
X149814284Y-92690301D01*
X149673173Y-92606849D01*
X149674912Y-92603907D01*
X149633127Y-92569198D01*
X149612050Y-92502584D01*
X149630333Y-92435149D01*
X149674438Y-92395291D01*
X149673173Y-92393151D01*
X149679888Y-92389180D01*
X149814287Y-92309697D01*
X149924697Y-92199287D01*
X150004180Y-92064888D01*
X150047743Y-91914945D01*
X150047943Y-91912398D01*
X150056998Y-91874673D01*
X150103394Y-91762666D01*
X150138000Y-91588691D01*
X150138000Y-91411309D01*
X150138000Y-91411306D01*
X150137999Y-91411304D01*
X150103395Y-91237341D01*
X150103394Y-91237334D01*
X150056999Y-91125327D01*
X150047943Y-91087596D01*
X150047743Y-91085056D01*
X150047743Y-91085055D01*
X150004180Y-90935112D01*
X149924697Y-90800713D01*
X149924695Y-90800711D01*
X149924692Y-90800707D01*
X149814292Y-90690307D01*
X149814284Y-90690301D01*
X149673173Y-90606849D01*
X149674912Y-90603907D01*
X149633127Y-90569198D01*
X149612050Y-90502584D01*
X149630333Y-90435149D01*
X149674438Y-90395291D01*
X149673173Y-90393151D01*
X149679888Y-90389180D01*
X149814287Y-90309697D01*
X149924697Y-90199287D01*
X150004180Y-90064888D01*
X150047743Y-89914945D01*
X150050500Y-89879914D01*
X150050500Y-89120086D01*
X150047743Y-89085055D01*
X150004180Y-88935112D01*
X149924697Y-88800713D01*
X149924695Y-88800711D01*
X149924692Y-88800707D01*
X149814292Y-88690307D01*
X149814284Y-88690301D01*
X149673173Y-88606849D01*
X149674912Y-88603907D01*
X149633127Y-88569198D01*
X149612050Y-88502584D01*
X149630333Y-88435149D01*
X149674438Y-88395291D01*
X149673173Y-88393151D01*
X149698251Y-88378320D01*
X149814287Y-88309697D01*
X149924697Y-88199287D01*
X150004180Y-88064888D01*
X150047743Y-87914945D01*
X150050500Y-87879914D01*
X150050500Y-87120086D01*
X150047743Y-87085055D01*
X150004180Y-86935112D01*
X149924697Y-86800713D01*
X149924695Y-86800711D01*
X149924692Y-86800707D01*
X149814292Y-86690307D01*
X149814284Y-86690301D01*
X149743221Y-86648275D01*
X149679888Y-86610820D01*
X149679887Y-86610819D01*
X149673173Y-86606849D01*
X149674912Y-86603907D01*
X149633127Y-86569198D01*
X149612050Y-86502584D01*
X149630333Y-86435149D01*
X149674438Y-86395291D01*
X149673173Y-86393151D01*
X149679888Y-86389180D01*
X149814287Y-86309697D01*
X149924697Y-86199287D01*
X150004180Y-86064888D01*
X150047743Y-85914945D01*
X150050500Y-85879914D01*
X150050500Y-85120086D01*
X150047743Y-85085055D01*
X150044372Y-85073453D01*
X150004181Y-84935116D01*
X150004180Y-84935113D01*
X150004180Y-84935112D01*
X149924697Y-84800713D01*
X149924695Y-84800711D01*
X149924692Y-84800707D01*
X149814292Y-84690307D01*
X149814284Y-84690301D01*
X149719263Y-84634106D01*
X149679888Y-84610820D01*
X149679887Y-84610819D01*
X149679886Y-84610819D01*
X149679883Y-84610818D01*
X149529949Y-84567257D01*
X149529943Y-84567256D01*
X149494921Y-84564500D01*
X149494914Y-84564500D01*
X147055086Y-84564500D01*
X147055078Y-84564500D01*
X147020056Y-84567256D01*
X147020050Y-84567257D01*
X146870116Y-84610818D01*
X146870113Y-84610819D01*
X146735715Y-84690301D01*
X146735707Y-84690307D01*
X146636234Y-84789781D01*
X146574911Y-84823266D01*
X146505219Y-84818282D01*
X146478699Y-84803022D01*
X146478100Y-84803920D01*
X146325553Y-84701990D01*
X146325540Y-84701983D01*
X146161667Y-84634106D01*
X146161658Y-84634103D01*
X145987694Y-84599500D01*
X145987691Y-84599500D01*
X145810309Y-84599500D01*
X145810306Y-84599500D01*
X145636341Y-84634103D01*
X145636332Y-84634106D01*
X145472459Y-84701983D01*
X145472446Y-84701990D01*
X145324965Y-84800535D01*
X145324961Y-84800538D01*
X145199538Y-84925961D01*
X145199535Y-84925965D01*
X145100990Y-85073446D01*
X145100983Y-85073459D01*
X145033106Y-85237332D01*
X145033103Y-85237341D01*
X144998500Y-85411304D01*
X144998500Y-86739626D01*
X144978815Y-86806665D01*
X144962181Y-86827307D01*
X139726307Y-92063181D01*
X139664984Y-92096666D01*
X139638626Y-92099500D01*
X137522484Y-92099500D01*
X137455445Y-92079815D01*
X137409690Y-92027011D01*
X137399746Y-91957853D01*
X137400867Y-91951309D01*
X137426499Y-91822442D01*
X137426500Y-91822439D01*
X137426500Y-90608688D01*
X137422440Y-90588282D01*
X137422440Y-90588277D01*
X137391896Y-90434723D01*
X137391895Y-90434716D01*
X137357953Y-90352775D01*
X137324013Y-90270835D01*
X137259029Y-90173580D01*
X137225464Y-90123346D01*
X137225462Y-90123343D01*
X136487819Y-89385700D01*
X136454334Y-89324377D01*
X136451500Y-89298019D01*
X136451500Y-88651638D01*
X140382142Y-88651638D01*
X140409061Y-88786965D01*
X140409064Y-88786975D01*
X140461864Y-88914447D01*
X140461871Y-88914460D01*
X140538528Y-89029184D01*
X140538531Y-89029188D01*
X140636097Y-89126754D01*
X140636101Y-89126757D01*
X140750825Y-89203414D01*
X140750838Y-89203421D01*
X140878310Y-89256221D01*
X140878315Y-89256223D01*
X140878319Y-89256223D01*
X140878320Y-89256224D01*
X141013647Y-89283143D01*
X141013650Y-89283143D01*
X141151638Y-89283143D01*
X141242684Y-89265032D01*
X141286971Y-89256223D01*
X141414454Y-89203418D01*
X141529185Y-89126757D01*
X141626757Y-89029185D01*
X141703418Y-88914454D01*
X141756223Y-88786971D01*
X141783143Y-88651636D01*
X141783143Y-88570608D01*
X141802828Y-88503569D01*
X141819462Y-88482927D01*
X142549385Y-87753004D01*
X143550243Y-86752146D01*
X143609553Y-86649419D01*
X143619895Y-86610820D01*
X143640254Y-86534841D01*
X143640254Y-81306999D01*
X143609553Y-81192422D01*
X143609553Y-81192421D01*
X143609553Y-81192420D01*
X143550246Y-81089697D01*
X143550242Y-81089692D01*
X143478646Y-81018096D01*
X143322729Y-80862180D01*
X143289245Y-80800858D01*
X143294229Y-80731167D01*
X143336100Y-80675233D01*
X143401565Y-80650816D01*
X143410411Y-80650500D01*
X144333481Y-80650500D01*
X144400520Y-80670185D01*
X144421162Y-80686819D01*
X145580554Y-81846211D01*
X145614039Y-81907534D01*
X145615989Y-81948672D01*
X145614198Y-81963592D01*
X145612000Y-81981898D01*
X145612000Y-83018102D01*
X145616712Y-83057341D01*
X145622622Y-83106561D01*
X145678139Y-83247343D01*
X145769577Y-83367922D01*
X145890156Y-83459360D01*
X145890157Y-83459360D01*
X145890158Y-83459361D01*
X146030936Y-83514877D01*
X146119398Y-83525500D01*
X146119403Y-83525500D01*
X146880597Y-83525500D01*
X146880602Y-83525500D01*
X146969064Y-83514877D01*
X147109842Y-83459361D01*
X147230422Y-83367922D01*
X147321861Y-83247342D01*
X147365896Y-83135675D01*
X147408801Y-83080534D01*
X147474709Y-83057341D01*
X147542693Y-83073461D01*
X147591170Y-83123778D01*
X147596598Y-83135664D01*
X147626724Y-83212057D01*
X147640639Y-83247343D01*
X147732077Y-83367922D01*
X147852656Y-83459360D01*
X147852657Y-83459360D01*
X147852658Y-83459361D01*
X147993436Y-83514877D01*
X148081898Y-83525500D01*
X148081903Y-83525500D01*
X148843097Y-83525500D01*
X148843102Y-83525500D01*
X148931564Y-83514877D01*
X149072342Y-83459361D01*
X149192922Y-83367922D01*
X149284361Y-83247342D01*
X149339877Y-83106564D01*
X149350500Y-83018102D01*
X149350500Y-81981898D01*
X149339877Y-81893436D01*
X149284361Y-81752658D01*
X149284360Y-81752657D01*
X149284360Y-81752656D01*
X149188196Y-81625845D01*
X149180196Y-81604797D01*
X149168023Y-81585855D01*
X149164996Y-81564805D01*
X149163373Y-81560534D01*
X149163000Y-81550920D01*
X149163000Y-81449078D01*
X149182685Y-81382039D01*
X149188197Y-81374152D01*
X149192920Y-81367923D01*
X149192922Y-81367922D01*
X149284361Y-81247342D01*
X149339877Y-81106564D01*
X149350500Y-81018102D01*
X149350500Y-79981898D01*
X149339877Y-79893436D01*
X149284361Y-79752658D01*
X149284360Y-79752657D01*
X149284360Y-79752656D01*
X149192922Y-79632077D01*
X149072343Y-79540639D01*
X148931561Y-79485122D01*
X148885926Y-79479642D01*
X148843102Y-79474500D01*
X148843097Y-79474500D01*
X148479018Y-79474500D01*
X148411979Y-79454815D01*
X148391337Y-79438181D01*
X147409046Y-78455888D01*
X147409045Y-78455887D01*
X147294307Y-78379222D01*
X147166832Y-78326421D01*
X147166822Y-78326418D01*
X147031496Y-78299500D01*
X147031494Y-78299500D01*
X147031493Y-78299500D01*
X146368507Y-78299500D01*
X146368505Y-78299500D01*
X146233177Y-78326418D01*
X146233167Y-78326421D01*
X146105690Y-78379223D01*
X146100319Y-78382095D01*
X146099623Y-78380794D01*
X146039938Y-78399480D01*
X146037730Y-78399500D01*
X145795730Y-78399500D01*
X145765300Y-78402353D01*
X145765298Y-78402354D01*
X145763000Y-78403158D01*
X145761196Y-78403249D01*
X145757927Y-78403964D01*
X145757808Y-78403422D01*
X145693221Y-78406712D01*
X145632597Y-78371978D01*
X145600376Y-78309981D01*
X145598599Y-78274534D01*
X145600500Y-78254266D01*
X145600500Y-77845734D01*
X145597646Y-77815301D01*
X145597646Y-77815300D01*
X145597646Y-77815298D01*
X145552793Y-77687119D01*
X145552792Y-77687117D01*
X145472150Y-77577850D01*
X145362882Y-77497207D01*
X145362880Y-77497206D01*
X145234700Y-77452353D01*
X145204270Y-77449500D01*
X145204266Y-77449500D01*
X143920734Y-77449500D01*
X143920730Y-77449500D01*
X143890300Y-77452353D01*
X143890298Y-77452354D01*
X143775451Y-77492541D01*
X143734496Y-77499500D01*
X143449021Y-77499500D01*
X143381982Y-77479815D01*
X143336227Y-77427011D01*
X143333674Y-77421009D01*
X143296861Y-77327658D01*
X143296860Y-77327657D01*
X143296860Y-77327656D01*
X143205422Y-77207077D01*
X143084843Y-77115639D01*
X142944061Y-77060122D01*
X142898426Y-77054642D01*
X142855602Y-77049500D01*
X141869398Y-77049500D01*
X141830353Y-77054188D01*
X141780938Y-77060122D01*
X141640156Y-77115639D01*
X141519577Y-77207077D01*
X141428139Y-77327656D01*
X141372622Y-77468438D01*
X141366688Y-77517853D01*
X141362000Y-77556898D01*
X141362000Y-77556903D01*
X141362000Y-78262035D01*
X141342315Y-78329074D01*
X141325681Y-78349716D01*
X140901013Y-78774383D01*
X140901009Y-78774389D01*
X140841701Y-78877112D01*
X140841700Y-78877117D01*
X140811000Y-78991691D01*
X140811000Y-80820811D01*
X140818955Y-80850497D01*
X140818955Y-80850500D01*
X140818956Y-80850500D01*
X140841701Y-80935387D01*
X140901011Y-81038114D01*
X141223386Y-81360489D01*
X141326113Y-81419799D01*
X141347822Y-81425615D01*
X141347825Y-81425617D01*
X141347826Y-81425617D01*
X141367450Y-81430875D01*
X141440691Y-81450500D01*
X142585481Y-81450500D01*
X142614921Y-81459144D01*
X142644908Y-81465668D01*
X142649923Y-81469422D01*
X142652520Y-81470185D01*
X142673162Y-81486819D01*
X142702935Y-81516592D01*
X142736420Y-81577915D01*
X142739254Y-81604273D01*
X142739254Y-86237567D01*
X142719569Y-86304606D01*
X142702935Y-86325248D01*
X141182359Y-87845824D01*
X141121036Y-87879309D01*
X141094678Y-87882143D01*
X141013648Y-87882143D01*
X140878320Y-87909061D01*
X140878310Y-87909064D01*
X140750838Y-87961864D01*
X140750825Y-87961871D01*
X140636101Y-88038528D01*
X140636097Y-88038531D01*
X140538531Y-88136097D01*
X140538528Y-88136101D01*
X140461871Y-88250825D01*
X140461864Y-88250838D01*
X140409064Y-88378310D01*
X140409061Y-88378320D01*
X140382143Y-88513647D01*
X140382143Y-88513650D01*
X140382143Y-88651636D01*
X140382143Y-88651638D01*
X140382142Y-88651638D01*
X136451500Y-88651638D01*
X136451500Y-88609798D01*
X136450913Y-88606849D01*
X136434469Y-88524176D01*
X136434470Y-88475813D01*
X136451500Y-88390202D01*
X136451500Y-88295424D01*
X136453883Y-88271233D01*
X136480762Y-88136101D01*
X136487075Y-88104362D01*
X136487075Y-87926979D01*
X136452470Y-87753005D01*
X136384588Y-87589124D01*
X136384587Y-87589123D01*
X136384584Y-87589117D01*
X136286039Y-87441635D01*
X136286036Y-87441631D01*
X136160614Y-87316209D01*
X136160610Y-87316206D01*
X136013128Y-87217661D01*
X136013119Y-87217656D01*
X135849241Y-87149776D01*
X135849233Y-87149774D01*
X135675271Y-87115171D01*
X135675267Y-87115171D01*
X135497884Y-87115171D01*
X135497879Y-87115171D01*
X135323916Y-87149774D01*
X135323908Y-87149776D01*
X135238022Y-87185352D01*
X135238020Y-87185353D01*
X135170651Y-87213257D01*
X135101182Y-87220724D01*
X135038703Y-87189449D01*
X135003051Y-87129359D01*
X134999582Y-87108423D01*
X134997743Y-87085056D01*
X134997742Y-87085050D01*
X134954181Y-86935116D01*
X134954180Y-86935113D01*
X134954180Y-86935112D01*
X134874697Y-86800713D01*
X134874695Y-86800711D01*
X134874692Y-86800707D01*
X134764292Y-86690307D01*
X134764284Y-86690301D01*
X134690009Y-86646375D01*
X134629888Y-86610820D01*
X134629887Y-86610819D01*
X134629886Y-86610819D01*
X134629883Y-86610818D01*
X134479949Y-86567257D01*
X134479943Y-86567256D01*
X134444921Y-86564500D01*
X134444914Y-86564500D01*
X132124500Y-86564500D01*
X132057461Y-86544815D01*
X132011706Y-86492011D01*
X132000500Y-86440500D01*
X132000500Y-84876952D01*
X132020185Y-84809913D01*
X132072989Y-84764158D01*
X132142147Y-84754214D01*
X132171952Y-84762391D01*
X132173451Y-84763012D01*
X132173453Y-84763013D01*
X132337334Y-84830894D01*
X132337336Y-84830894D01*
X132337341Y-84830896D01*
X132511304Y-84865499D01*
X132511307Y-84865500D01*
X132511309Y-84865500D01*
X132688693Y-84865500D01*
X132688694Y-84865499D01*
X132746682Y-84853964D01*
X132862658Y-84830896D01*
X132862661Y-84830894D01*
X132862666Y-84830894D01*
X133026547Y-84763013D01*
X133174035Y-84664464D01*
X133299464Y-84539035D01*
X133398013Y-84391547D01*
X133465894Y-84227666D01*
X133500500Y-84053691D01*
X133500500Y-83876309D01*
X133500500Y-74511309D01*
X133492274Y-74469954D01*
X133492274Y-74469952D01*
X133492274Y-74469950D01*
X133474607Y-74381137D01*
X133465895Y-74337334D01*
X133422884Y-74233497D01*
X133398013Y-74173453D01*
X133324694Y-74063724D01*
X133299464Y-74025964D01*
X133299462Y-74025961D01*
X133299459Y-74025958D01*
X132074035Y-72800535D01*
X132074030Y-72800531D01*
X132019622Y-72764178D01*
X132019616Y-72764175D01*
X132014959Y-72761063D01*
X131926547Y-72701987D01*
X131844606Y-72668046D01*
X131762666Y-72634105D01*
X131762658Y-72634103D01*
X131599809Y-72601710D01*
X131537898Y-72569325D01*
X131503324Y-72508609D01*
X131500000Y-72480093D01*
X131500000Y-70175570D01*
X131519685Y-70108531D01*
X131542796Y-70081858D01*
X131563724Y-70063724D01*
X131704281Y-69901513D01*
X131820321Y-69720950D01*
X131820323Y-69720944D01*
X131820327Y-69720938D01*
X131909482Y-69525715D01*
X131909482Y-69525713D01*
X131909484Y-69525710D01*
X131969954Y-69319769D01*
X132000500Y-69107318D01*
X132000500Y-69000000D01*
X132000500Y-68934108D01*
X132000500Y-61624000D01*
X132020185Y-61556961D01*
X132072989Y-61511206D01*
X132124500Y-61500000D01*
X138875500Y-61500000D01*
X138942539Y-61519685D01*
G37*
%TD.AperFunction*%
%TA.AperFunction,Conductor*%
G36*
X146466840Y-87972160D02*
G01*
X146522773Y-88014032D01*
X146542581Y-88053743D01*
X146545817Y-88064882D01*
X146545819Y-88064886D01*
X146625301Y-88199284D01*
X146625307Y-88199292D01*
X146735707Y-88309692D01*
X146735711Y-88309695D01*
X146735713Y-88309697D01*
X146851740Y-88378315D01*
X146876827Y-88393151D01*
X146875100Y-88396069D01*
X146916965Y-88430940D01*
X146937952Y-88497583D01*
X146919578Y-88564994D01*
X146875543Y-88604678D01*
X146876827Y-88606849D01*
X146735715Y-88690301D01*
X146735707Y-88690307D01*
X146625307Y-88800707D01*
X146625301Y-88800715D01*
X146545819Y-88935113D01*
X146545818Y-88935116D01*
X146502257Y-89085050D01*
X146502256Y-89085056D01*
X146499500Y-89120078D01*
X146499500Y-89879921D01*
X146502256Y-89914943D01*
X146502257Y-89914949D01*
X146545818Y-90064883D01*
X146545819Y-90064886D01*
X146625301Y-90199284D01*
X146625307Y-90199292D01*
X146735707Y-90309692D01*
X146735711Y-90309695D01*
X146735713Y-90309697D01*
X146819254Y-90359103D01*
X146876827Y-90393151D01*
X146875100Y-90396069D01*
X146916965Y-90430940D01*
X146937952Y-90497583D01*
X146919578Y-90564994D01*
X146875543Y-90604678D01*
X146876827Y-90606849D01*
X146735715Y-90690301D01*
X146735707Y-90690307D01*
X146625307Y-90800707D01*
X146625301Y-90800715D01*
X146545819Y-90935113D01*
X146545818Y-90935116D01*
X146502257Y-91085050D01*
X146502256Y-91085056D01*
X146499500Y-91120078D01*
X146499500Y-91879921D01*
X146502256Y-91914943D01*
X146502257Y-91914949D01*
X146545818Y-92064883D01*
X146545819Y-92064886D01*
X146625301Y-92199284D01*
X146625307Y-92199292D01*
X146735707Y-92309692D01*
X146735711Y-92309695D01*
X146735713Y-92309697D01*
X146814839Y-92356492D01*
X146876827Y-92393151D01*
X146875100Y-92396069D01*
X146916965Y-92430940D01*
X146937952Y-92497583D01*
X146919578Y-92564994D01*
X146875543Y-92604678D01*
X146876827Y-92606849D01*
X146735715Y-92690301D01*
X146735707Y-92690307D01*
X146625307Y-92800707D01*
X146625301Y-92800716D01*
X146569426Y-92895196D01*
X146518357Y-92942879D01*
X146449615Y-92955383D01*
X146415242Y-92946636D01*
X146304332Y-92900696D01*
X146304322Y-92900693D01*
X146168995Y-92873775D01*
X146168993Y-92873775D01*
X146031007Y-92873775D01*
X146031005Y-92873775D01*
X145895677Y-92900693D01*
X145895667Y-92900696D01*
X145768195Y-92953496D01*
X145768182Y-92953503D01*
X145653458Y-93030160D01*
X145653454Y-93030163D01*
X145555888Y-93127729D01*
X145555885Y-93127733D01*
X145479228Y-93242457D01*
X145479221Y-93242470D01*
X145426418Y-93369949D01*
X145426333Y-93370232D01*
X145426247Y-93370361D01*
X145424089Y-93375574D01*
X145423099Y-93375164D01*
X145388028Y-93428666D01*
X145324212Y-93457114D01*
X145255146Y-93446544D01*
X145202759Y-93400313D01*
X145186060Y-93358412D01*
X145173581Y-93295679D01*
X145173581Y-93295677D01*
X145173580Y-93295672D01*
X145151538Y-93242457D01*
X145120778Y-93168195D01*
X145120771Y-93168182D01*
X145044114Y-93053458D01*
X145044111Y-93053454D01*
X144946545Y-92955888D01*
X144946541Y-92955885D01*
X144831817Y-92879228D01*
X144831804Y-92879221D01*
X144704332Y-92826421D01*
X144704322Y-92826418D01*
X144568995Y-92799500D01*
X144568993Y-92799500D01*
X144431007Y-92799500D01*
X144431005Y-92799500D01*
X144295677Y-92826418D01*
X144295667Y-92826421D01*
X144168195Y-92879221D01*
X144168182Y-92879228D01*
X144053458Y-92955885D01*
X144053454Y-92955888D01*
X143955888Y-93053454D01*
X143955885Y-93053458D01*
X143879228Y-93168182D01*
X143879221Y-93168195D01*
X143826421Y-93295667D01*
X143826418Y-93295677D01*
X143799500Y-93431004D01*
X143799500Y-93431007D01*
X143799500Y-93568993D01*
X143799500Y-93568995D01*
X143799499Y-93568995D01*
X143826418Y-93704322D01*
X143826420Y-93704328D01*
X143879222Y-93831806D01*
X143879224Y-93831809D01*
X143883516Y-93838233D01*
X143904392Y-93904910D01*
X143885906Y-93972290D01*
X143868093Y-93994802D01*
X143352341Y-94510556D01*
X143291018Y-94544041D01*
X143264660Y-94546875D01*
X141454043Y-94546875D01*
X141387004Y-94527190D01*
X141366366Y-94510560D01*
X141309067Y-94453261D01*
X141309066Y-94453260D01*
X141309065Y-94453259D01*
X141194342Y-94376603D01*
X141194329Y-94376596D01*
X141066857Y-94323796D01*
X141066847Y-94323793D01*
X140931520Y-94296875D01*
X140931518Y-94296875D01*
X140793532Y-94296875D01*
X140793530Y-94296875D01*
X140658202Y-94323793D01*
X140658192Y-94323796D01*
X140530720Y-94376596D01*
X140530707Y-94376603D01*
X140415983Y-94453260D01*
X140415979Y-94453263D01*
X140318413Y-94550829D01*
X140318410Y-94550833D01*
X140241753Y-94665557D01*
X140241746Y-94665570D01*
X140188946Y-94793042D01*
X140188943Y-94793052D01*
X140162025Y-94928379D01*
X140162025Y-94928382D01*
X140162025Y-95066368D01*
X140162025Y-95066370D01*
X140162024Y-95066370D01*
X140188943Y-95201697D01*
X140188946Y-95201707D01*
X140241746Y-95329179D01*
X140241753Y-95329192D01*
X140318410Y-95443916D01*
X140318413Y-95443920D01*
X140354308Y-95479815D01*
X140387793Y-95541138D01*
X140382809Y-95610830D01*
X140362485Y-95646155D01*
X140359271Y-95650070D01*
X140282612Y-95764798D01*
X140282605Y-95764811D01*
X140229805Y-95892283D01*
X140229802Y-95892292D01*
X140218880Y-95947201D01*
X140186494Y-96009112D01*
X140125778Y-96043685D01*
X140056008Y-96039944D01*
X140009582Y-96010689D01*
X139638406Y-95639513D01*
X139638404Y-95639511D01*
X139535677Y-95580201D01*
X139535676Y-95580200D01*
X139535675Y-95580200D01*
X139535673Y-95580199D01*
X139509908Y-95573296D01*
X139509907Y-95573295D01*
X139509907Y-95573296D01*
X139465502Y-95561398D01*
X139421099Y-95549500D01*
X139421098Y-95549500D01*
X136324500Y-95549500D01*
X136257461Y-95529815D01*
X136211706Y-95477011D01*
X136200500Y-95425500D01*
X136200500Y-94024500D01*
X136220185Y-93957461D01*
X136272989Y-93911706D01*
X136324500Y-93900500D01*
X140151681Y-93900500D01*
X140151682Y-93900499D01*
X140325654Y-93865895D01*
X140407939Y-93831811D01*
X140407940Y-93831811D01*
X140489528Y-93798016D01*
X140489528Y-93798015D01*
X140489535Y-93798013D01*
X140629744Y-93704328D01*
X140637024Y-93699464D01*
X146335827Y-88000659D01*
X146397148Y-87967176D01*
X146466840Y-87972160D01*
G37*
%TD.AperFunction*%
%TD*%
M02*
