%TF.GenerationSoftware,KiCad,Pcbnew,9.0.7*%
%TF.CreationDate,2026-03-30T19:46:50+02:00*%
%TF.ProjectId,PicoBalloon_2026_v1,5069636f-4261-46c6-9c6f-6f6e5f323032,rev?*%
%TF.SameCoordinates,Original*%
%TF.FileFunction,Soldermask,Bot*%
%TF.FilePolarity,Negative*%
%FSLAX46Y46*%
G04 Gerber Fmt 4.6, Leading zero omitted, Abs format (unit mm)*
G04 Created by KiCad (PCBNEW 9.0.7) date 2026-03-30 19:46:50*
%MOMM*%
%LPD*%
G01*
G04 APERTURE LIST*
G04 Aperture macros list*
%AMRoundRect*
0 Rectangle with rounded corners*
0 $1 Rounding radius*
0 $2 $3 $4 $5 $6 $7 $8 $9 X,Y pos of 4 corners*
0 Add a 4 corners polygon primitive as box body*
4,1,4,$2,$3,$4,$5,$6,$7,$8,$9,$2,$3,0*
0 Add four circle primitives for the rounded corners*
1,1,$1+$1,$2,$3*
1,1,$1+$1,$4,$5*
1,1,$1+$1,$6,$7*
1,1,$1+$1,$8,$9*
0 Add four rect primitives between the rounded corners*
20,1,$1+$1,$2,$3,$4,$5,0*
20,1,$1+$1,$4,$5,$6,$7,0*
20,1,$1+$1,$6,$7,$8,$9,0*
20,1,$1+$1,$8,$9,$2,$3,0*%
G04 Aperture macros list end*
%ADD10R,1.000000X1.000000*%
%ADD11C,1.000000*%
%ADD12R,1.700000X1.700000*%
%ADD13RoundRect,0.250000X0.450000X-0.350000X0.450000X0.350000X-0.450000X0.350000X-0.450000X-0.350000X0*%
%ADD14RoundRect,0.250000X-0.250000X-0.750000X0.250000X-0.750000X0.250000X0.750000X-0.250000X0.750000X0*%
%ADD15RoundRect,0.250000X0.250000X0.750000X-0.250000X0.750000X-0.250000X-0.750000X0.250000X-0.750000X0*%
%ADD16RoundRect,0.120000X0.880000X0.280000X-0.880000X0.280000X-0.880000X-0.280000X0.880000X-0.280000X0*%
%ADD17RoundRect,0.250000X-0.750000X0.250000X-0.750000X-0.250000X0.750000X-0.250000X0.750000X0.250000X0*%
%ADD18RoundRect,0.250000X0.337500X0.475000X-0.337500X0.475000X-0.337500X-0.475000X0.337500X-0.475000X0*%
%ADD19RoundRect,0.137500X0.137500X-0.600000X0.137500X0.600000X-0.137500X0.600000X-0.137500X-0.600000X0*%
%ADD20RoundRect,0.137500X0.600000X-0.137500X0.600000X0.137500X-0.600000X0.137500X-0.600000X-0.137500X0*%
%ADD21RoundRect,0.150000X-0.150000X0.587500X-0.150000X-0.587500X0.150000X-0.587500X0.150000X0.587500X0*%
%ADD22RoundRect,0.250000X0.350000X0.450000X-0.350000X0.450000X-0.350000X-0.450000X0.350000X-0.450000X0*%
%ADD23RoundRect,0.250000X-0.350000X-0.450000X0.350000X-0.450000X0.350000X0.450000X-0.350000X0.450000X0*%
%ADD24RoundRect,0.250000X-0.337500X-0.475000X0.337500X-0.475000X0.337500X0.475000X-0.337500X0.475000X0*%
%ADD25C,1.500000*%
G04 APERTURE END LIST*
D10*
%TO.C,J9*%
X133595000Y-102500000D03*
D11*
X134865000Y-102500000D03*
X136135000Y-102500000D03*
X137405000Y-102500000D03*
%TD*%
D12*
%TO.C,J3*%
X129500000Y-101000000D03*
%TD*%
D10*
%TO.C,J13*%
X150000000Y-99500000D03*
%TD*%
D12*
%TO.C,J12*%
X129500000Y-73500000D03*
%TD*%
D10*
%TO.C,J5*%
X137000000Y-60000000D03*
D11*
X138270000Y-60000000D03*
%TD*%
D10*
%TO.C,J11*%
X135500000Y-147040000D03*
D11*
X135500000Y-145770000D03*
X135500000Y-144500000D03*
%TD*%
D10*
%TO.C,J8*%
X150000000Y-97500000D03*
%TD*%
%TO.C,J7*%
X133500000Y-56000000D03*
D11*
X133500000Y-54730000D03*
%TD*%
D10*
%TO.C,J6*%
X137500000Y-56000000D03*
D11*
X137500000Y-54730000D03*
%TD*%
D10*
%TO.C,J4*%
X134000000Y-60000000D03*
D11*
X132730000Y-60000000D03*
%TD*%
D13*
%TO.C,R8*%
X143994432Y-89000000D03*
X143994432Y-87000000D03*
%TD*%
%TO.C,R10*%
X146000000Y-89000000D03*
X146000000Y-87000000D03*
%TD*%
D14*
%TO.C,J16*%
X144000000Y-90000000D03*
%TD*%
D15*
%TO.C,J1*%
X144500000Y-94000000D03*
%TD*%
D16*
%TO.C,U3*%
X149800000Y-75530000D03*
X149800000Y-76650000D03*
X149800000Y-77770000D03*
X149800000Y-78890000D03*
X149800000Y-80000000D03*
X149800000Y-81120000D03*
X149800000Y-82240000D03*
X149800000Y-83360000D03*
X149800000Y-84480000D03*
X140200000Y-84480000D03*
X140200000Y-83360000D03*
X140200000Y-82240000D03*
X140200000Y-81120000D03*
X140200000Y-80000000D03*
X140200000Y-78890000D03*
X140200000Y-77770000D03*
X140200000Y-76650000D03*
X140200000Y-75530000D03*
%TD*%
D15*
%TO.C,J17*%
X146000000Y-90000000D03*
%TD*%
D17*
%TO.C,J14*%
X143500000Y-99030472D03*
%TD*%
D15*
%TO.C,J15*%
X146500000Y-94000000D03*
%TD*%
D18*
%TO.C,C1*%
X150500000Y-93500000D03*
X148425000Y-93500000D03*
%TD*%
D13*
%TO.C,R9*%
X146500000Y-93500000D03*
X146500000Y-91500000D03*
%TD*%
D19*
%TO.C,U1*%
X140800000Y-98162500D03*
X140000000Y-98162500D03*
X139200000Y-98162500D03*
X138400000Y-98162500D03*
X137600000Y-98162500D03*
X136800000Y-98162500D03*
X136000000Y-98162500D03*
X135200000Y-98162500D03*
D20*
X133837500Y-96800000D03*
X133837500Y-96000000D03*
X133837500Y-95200000D03*
X133837500Y-94400000D03*
X133837500Y-93600000D03*
X133837500Y-92800000D03*
X133837500Y-92000000D03*
X133837500Y-91200000D03*
D19*
X135200000Y-89837500D03*
X136000000Y-89837500D03*
X136800000Y-89837500D03*
X137600000Y-89837500D03*
X138400000Y-89837500D03*
X139200000Y-89837500D03*
X140000000Y-89837500D03*
X140800000Y-89837500D03*
D20*
X142162500Y-91200000D03*
X142162500Y-92000000D03*
X142162500Y-92800000D03*
X142162500Y-93600000D03*
X142162500Y-94400000D03*
X142162500Y-95200000D03*
X142162500Y-96000000D03*
X142162500Y-96800000D03*
%TD*%
D18*
%TO.C,C15*%
X137850825Y-87797533D03*
X135775825Y-87797533D03*
%TD*%
%TO.C,C2*%
X150500000Y-95500000D03*
X148425000Y-95500000D03*
%TD*%
D21*
%TO.C,Q1*%
X148550000Y-89625000D03*
X150450000Y-89625000D03*
X149500000Y-91500000D03*
%TD*%
D22*
%TO.C,R1*%
X150500000Y-87500000D03*
X148500000Y-87500000D03*
%TD*%
D23*
%TO.C,R6*%
X144000000Y-96500000D03*
X146000000Y-96500000D03*
%TD*%
D24*
%TO.C,C13*%
X133962500Y-100500000D03*
X136037500Y-100500000D03*
%TD*%
D18*
%TO.C,C18*%
X146113679Y-98500000D03*
X144038679Y-98500000D03*
%TD*%
D13*
%TO.C,R7*%
X144500000Y-93500000D03*
X144500000Y-91500000D03*
%TD*%
D18*
%TO.C,C16*%
X135537500Y-85500000D03*
X133462500Y-85500000D03*
%TD*%
%TO.C,C14*%
X140037500Y-100500000D03*
X137962500Y-100500000D03*
%TD*%
D25*
X150000000Y-74000000D03*
X129500000Y-71500000D03*
G36*
X138001223Y-53000024D02*
G01*
X138109336Y-53002144D01*
X138126303Y-53003647D01*
X138341068Y-53037663D01*
X138359988Y-53042205D01*
X138565629Y-53109021D01*
X138583606Y-53116467D01*
X138776264Y-53214631D01*
X138792855Y-53224798D01*
X138967786Y-53351894D01*
X138982581Y-53364531D01*
X139135468Y-53517418D01*
X139148105Y-53532213D01*
X139275201Y-53707144D01*
X139285368Y-53723735D01*
X139383532Y-53916393D01*
X139390978Y-53934370D01*
X139457794Y-54140011D01*
X139462336Y-54158931D01*
X139496352Y-54373696D01*
X139497855Y-54390662D01*
X139499976Y-54498776D01*
X139500000Y-54501208D01*
X139500000Y-61376000D01*
X139480315Y-61443039D01*
X139427511Y-61488794D01*
X139376000Y-61500000D01*
X131624000Y-61500000D01*
X131556961Y-61480315D01*
X131511206Y-61427511D01*
X131500000Y-61376000D01*
X131500000Y-54501208D01*
X131500024Y-54498777D01*
X131502144Y-54390663D01*
X131503647Y-54373696D01*
X131537663Y-54158931D01*
X131542205Y-54140011D01*
X131609021Y-53934370D01*
X131616467Y-53916393D01*
X131714631Y-53723735D01*
X131724798Y-53707144D01*
X131851894Y-53532213D01*
X131864531Y-53517418D01*
X132017418Y-53364531D01*
X132032213Y-53351894D01*
X132207144Y-53224798D01*
X132223735Y-53214631D01*
X132416393Y-53116467D01*
X132434370Y-53109021D01*
X132640011Y-53042205D01*
X132658931Y-53037663D01*
X132873696Y-53003647D01*
X132890663Y-53002144D01*
X132998777Y-53000024D01*
X133001208Y-53000000D01*
X137998792Y-53000000D01*
X138001223Y-53000024D01*
G37*
G36*
X139443039Y-102019685D02*
G01*
X139488794Y-102072489D01*
X139500000Y-102124000D01*
X139500000Y-102876000D01*
X139480315Y-102943039D01*
X139427511Y-102988794D01*
X139376000Y-103000000D01*
X131624000Y-103000000D01*
X131556961Y-102980315D01*
X131511206Y-102927511D01*
X131500000Y-102876000D01*
X131500000Y-102124000D01*
X131519685Y-102056961D01*
X131572489Y-102011206D01*
X131624000Y-102000000D01*
X139376000Y-102000000D01*
X139443039Y-102019685D01*
G37*
G36*
X135943039Y-104519685D02*
G01*
X135988794Y-104572489D01*
X136000000Y-104624000D01*
X136000000Y-105376000D01*
X135980315Y-105443039D01*
X135927511Y-105488794D01*
X135876000Y-105500000D01*
X135124000Y-105500000D01*
X135056961Y-105480315D01*
X135011206Y-105427511D01*
X135000000Y-105376000D01*
X135000000Y-104624000D01*
X135019685Y-104556961D01*
X135072489Y-104511206D01*
X135124000Y-104500000D01*
X135876000Y-104500000D01*
X135943039Y-104519685D01*
G37*
G36*
X135943039Y-134519685D02*
G01*
X135988794Y-134572489D01*
X136000000Y-134624000D01*
X136000000Y-135376000D01*
X135980315Y-135443039D01*
X135927511Y-135488794D01*
X135876000Y-135500000D01*
X135124000Y-135500000D01*
X135056961Y-135480315D01*
X135011206Y-135427511D01*
X135000000Y-135376000D01*
X135000000Y-134624000D01*
X135019685Y-134556961D01*
X135072489Y-134511206D01*
X135124000Y-134500000D01*
X135876000Y-134500000D01*
X135943039Y-134519685D01*
G37*
G36*
X135943039Y-146019685D02*
G01*
X135988794Y-146072489D01*
X136000000Y-146124000D01*
X136000000Y-148876000D01*
X135980315Y-148943039D01*
X135927511Y-148988794D01*
X135876000Y-149000000D01*
X135124000Y-149000000D01*
X135056961Y-148980315D01*
X135011206Y-148927511D01*
X135000000Y-148876000D01*
X135000000Y-146124000D01*
X135019685Y-146056961D01*
X135072489Y-146011206D01*
X135124000Y-146000000D01*
X135876000Y-146000000D01*
X135943039Y-146019685D01*
G37*
G36*
X145943039Y-100519685D02*
G01*
X145988794Y-100572489D01*
X146000000Y-100624000D01*
X146000000Y-101376000D01*
X145980315Y-101443039D01*
X145927511Y-101488794D01*
X145876000Y-101500000D01*
X145124000Y-101500000D01*
X145056961Y-101480315D01*
X145011206Y-101427511D01*
X145000000Y-101376000D01*
X145000000Y-100624000D01*
X145019685Y-100556961D01*
X145072489Y-100511206D01*
X145124000Y-100500000D01*
X145876000Y-100500000D01*
X145943039Y-100519685D01*
G37*
G36*
X141943039Y-100519685D02*
G01*
X141988794Y-100572489D01*
X142000000Y-100624000D01*
X142000000Y-101376000D01*
X141980315Y-101443039D01*
X141927511Y-101488794D01*
X141876000Y-101500000D01*
X141124000Y-101500000D01*
X141056961Y-101480315D01*
X141011206Y-101427511D01*
X141000000Y-101376000D01*
X141000000Y-100624000D01*
X141019685Y-100556961D01*
X141072489Y-100511206D01*
X141124000Y-100500000D01*
X141876000Y-100500000D01*
X141943039Y-100519685D01*
G37*
G36*
X135943039Y-114519685D02*
G01*
X135988794Y-114572489D01*
X136000000Y-114624000D01*
X136000000Y-115376000D01*
X135980315Y-115443039D01*
X135927511Y-115488794D01*
X135876000Y-115500000D01*
X135124000Y-115500000D01*
X135056961Y-115480315D01*
X135011206Y-115427511D01*
X135000000Y-115376000D01*
X135000000Y-114624000D01*
X135019685Y-114556961D01*
X135072489Y-114511206D01*
X135124000Y-114500000D01*
X135876000Y-114500000D01*
X135943039Y-114519685D01*
G37*
G36*
X135943039Y-142019685D02*
G01*
X135988794Y-142072489D01*
X136000000Y-142124000D01*
X136000000Y-144376000D01*
X135980315Y-144443039D01*
X135927511Y-144488794D01*
X135876000Y-144500000D01*
X135124000Y-144500000D01*
X135056961Y-144480315D01*
X135011206Y-144427511D01*
X135000000Y-144376000D01*
X135000000Y-142124000D01*
X135019685Y-142056961D01*
X135072489Y-142011206D01*
X135124000Y-142000000D01*
X135876000Y-142000000D01*
X135943039Y-142019685D01*
G37*
G36*
X135943039Y-124519685D02*
G01*
X135988794Y-124572489D01*
X136000000Y-124624000D01*
X136000000Y-125376000D01*
X135980315Y-125443039D01*
X135927511Y-125488794D01*
X135876000Y-125500000D01*
X135124000Y-125500000D01*
X135056961Y-125480315D01*
X135011206Y-125427511D01*
X135000000Y-125376000D01*
X135000000Y-124624000D01*
X135019685Y-124556961D01*
X135072489Y-124511206D01*
X135124000Y-124500000D01*
X135876000Y-124500000D01*
X135943039Y-124519685D01*
G37*
M02*
