M48
; DRILL file {KiCad 9.0.7} date 2026-03-30T19:47:32+0200
; FORMAT={-:-/ absolute / metric / decimal}
; #@! TF.CreationDate,2026-03-30T19:47:32+02:00
; #@! TF.GenerationSoftware,Kicad,Pcbnew,9.0.7
; #@! TF.FileFunction,Plated,1,2,PTH
FMAT,2
METRIC
; #@! TA.AperFunction,Plated,PTH,ViaDrill
T1C0.300
; #@! TA.AperFunction,Plated,PTH,ViaDrill
T2C0.500
; #@! TA.AperFunction,Plated,PTH,ComponentDrill
T3C0.650
; #@! TA.AperFunction,Plated,PTH,ViaDrill
T4C1.000
; #@! TA.AperFunction,Plated,PTH,ComponentDrill
T5C1.000
%
G90
G05
T1
X132.0Y-72.0
X132.0Y-100.5
X132.4Y-87.5
X132.417Y-95.504
X132.474Y-92.835
X132.499Y-63.963
X132.499Y-66.0
X132.499Y-68.0
X132.5Y-62.0
X132.5Y-70.0
X132.5Y-89.5
X133.949Y-63.963
X133.949Y-66.0
X133.949Y-68.0
X133.949Y-76.0
X133.949Y-80.728
X133.95Y-70.0
X133.95Y-72.0
X133.95Y-74.0
X133.95Y-78.0
X134.0Y-100.5
X134.515Y-82.437
X135.275Y-91.216
X135.604Y-83.856
X137.0Y-95.0
X137.05Y-64.001
X137.05Y-66.0
X137.05Y-68.0
X137.05Y-70.0
X137.05Y-72.0
X137.05Y-74.0
X137.05Y-76.0
X137.05Y-78.0
X137.05Y-80.0
X137.534Y-96.97
X138.0Y-81.5
X138.187Y-84.926
X138.499Y-63.963
X138.499Y-66.0
X138.499Y-68.0
X138.5Y-62.0
X138.5Y-70.0
X138.5Y-72.0
X139.0Y-74.5
X139.0Y-95.0
X139.08Y-96.922
X139.5Y-88.0
X139.5Y-91.5
X140.0Y-100.5
X140.2Y-82.24
X140.2Y-84.48
X140.863Y-94.997
X140.903Y-96.097
X141.083Y-88.583
X141.5Y-86.5
X141.901Y-82.24
X141.901Y-84.401
X142.0Y-76.5
X142.0Y-100.5
X143.0Y-75.0
X144.5Y-93.5
X144.5Y-100.5
X145.0Y-75.0
X146.0Y-96.0
X146.0Y-98.5
X146.0Y-100.5
X146.1Y-93.574
X146.5Y-77.5
X146.5Y-82.5
X148.15Y-82.41
X148.275Y-97.5
X148.5Y-101.5
X150.5Y-101.5
X150.537Y-93.5
X150.537Y-95.5
T2
X132.6Y-83.965
X135.587Y-88.016
X136.0Y-100.5
X137.963Y-100.5
X138.0Y-88.051
X138.406Y-91.243
X144.223Y-82.5
X145.899Y-85.5
X147.118Y-75.53
X148.275Y-91.5
X149.237Y-91.5
T3
X132.73Y-60.0
X133.5Y-54.73
X133.5Y-56.0
X133.595Y-102.5
X134.0Y-60.0
X134.865Y-102.5
X135.5Y-144.5
X135.5Y-145.77
X135.5Y-147.04
X136.135Y-102.5
X137.0Y-60.0
X137.405Y-102.5
X137.5Y-54.73
X137.5Y-56.0
X138.27Y-60.0
X150.0Y-97.5
X150.0Y-99.5
T4
X129.5Y-71.5
X150.0Y-74.0
T5
X129.5Y-73.5
X129.5Y-101.0
M30
