%TF.GenerationSoftware,KiCad,Pcbnew,9.0.7*%
%TF.CreationDate,2026-03-30T19:46:50+02:00*%
%TF.ProjectId,PicoBalloon_2026_v1,5069636f-4261-46c6-9c6f-6f6e5f323032,rev?*%
%TF.SameCoordinates,Original*%
%TF.FileFunction,Paste,Bot*%
%TF.FilePolarity,Positive*%
%FSLAX46Y46*%
G04 Gerber Fmt 4.6, Leading zero omitted, Abs format (unit mm)*
G04 Created by KiCad (PCBNEW 9.0.7) date 2026-03-30 19:46:50*
%MOMM*%
%LPD*%
G01*
G04 APERTURE LIST*
G04 Aperture macros list*
%AMRoundRect*
0 Rectangle with rounded corners*
0 $1 Rounding radius*
0 $2 $3 $4 $5 $6 $7 $8 $9 X,Y pos of 4 corners*
0 Add a 4 corners polygon primitive as box body*
4,1,4,$2,$3,$4,$5,$6,$7,$8,$9,$2,$3,0*
0 Add four circle primitives for the rounded corners*
1,1,$1+$1,$2,$3*
1,1,$1+$1,$4,$5*
1,1,$1+$1,$6,$7*
1,1,$1+$1,$8,$9*
0 Add four rect primitives between the rounded corners*
20,1,$1+$1,$2,$3,$4,$5,0*
20,1,$1+$1,$4,$5,$6,$7,0*
20,1,$1+$1,$6,$7,$8,$9,0*
20,1,$1+$1,$8,$9,$2,$3,0*%
G04 Aperture macros list end*
%ADD10RoundRect,0.250000X0.450000X-0.350000X0.450000X0.350000X-0.450000X0.350000X-0.450000X-0.350000X0*%
%ADD11RoundRect,0.120000X0.880000X0.280000X-0.880000X0.280000X-0.880000X-0.280000X0.880000X-0.280000X0*%
%ADD12RoundRect,0.250000X0.337500X0.475000X-0.337500X0.475000X-0.337500X-0.475000X0.337500X-0.475000X0*%
%ADD13RoundRect,0.137500X0.137500X-0.600000X0.137500X0.600000X-0.137500X0.600000X-0.137500X-0.600000X0*%
%ADD14RoundRect,0.137500X0.600000X-0.137500X0.600000X0.137500X-0.600000X0.137500X-0.600000X-0.137500X0*%
%ADD15RoundRect,0.150000X-0.150000X0.587500X-0.150000X-0.587500X0.150000X-0.587500X0.150000X0.587500X0*%
%ADD16RoundRect,0.250000X0.350000X0.450000X-0.350000X0.450000X-0.350000X-0.450000X0.350000X-0.450000X0*%
%ADD17RoundRect,0.250000X-0.350000X-0.450000X0.350000X-0.450000X0.350000X0.450000X-0.350000X0.450000X0*%
%ADD18RoundRect,0.250000X-0.337500X-0.475000X0.337500X-0.475000X0.337500X0.475000X-0.337500X0.475000X0*%
G04 APERTURE END LIST*
D10*
%TO.C,R8*%
X143994432Y-89000000D03*
X143994432Y-87000000D03*
%TD*%
%TO.C,R10*%
X146000000Y-89000000D03*
X146000000Y-87000000D03*
%TD*%
D11*
%TO.C,U3*%
X149800000Y-75530000D03*
X149800000Y-76650000D03*
X149800000Y-77770000D03*
X149800000Y-78890000D03*
X149800000Y-80000000D03*
X149800000Y-81120000D03*
X149800000Y-82240000D03*
X149800000Y-83360000D03*
X149800000Y-84480000D03*
X140200000Y-84480000D03*
X140200000Y-83360000D03*
X140200000Y-82240000D03*
X140200000Y-81120000D03*
X140200000Y-80000000D03*
X140200000Y-78890000D03*
X140200000Y-77770000D03*
X140200000Y-76650000D03*
X140200000Y-75530000D03*
%TD*%
D12*
%TO.C,C1*%
X150500000Y-93500000D03*
X148425000Y-93500000D03*
%TD*%
D10*
%TO.C,R9*%
X146500000Y-93500000D03*
X146500000Y-91500000D03*
%TD*%
D13*
%TO.C,U1*%
X140800000Y-98162500D03*
X140000000Y-98162500D03*
X139200000Y-98162500D03*
X138400000Y-98162500D03*
X137600000Y-98162500D03*
X136800000Y-98162500D03*
X136000000Y-98162500D03*
X135200000Y-98162500D03*
D14*
X133837500Y-96800000D03*
X133837500Y-96000000D03*
X133837500Y-95200000D03*
X133837500Y-94400000D03*
X133837500Y-93600000D03*
X133837500Y-92800000D03*
X133837500Y-92000000D03*
X133837500Y-91200000D03*
D13*
X135200000Y-89837500D03*
X136000000Y-89837500D03*
X136800000Y-89837500D03*
X137600000Y-89837500D03*
X138400000Y-89837500D03*
X139200000Y-89837500D03*
X140000000Y-89837500D03*
X140800000Y-89837500D03*
D14*
X142162500Y-91200000D03*
X142162500Y-92000000D03*
X142162500Y-92800000D03*
X142162500Y-93600000D03*
X142162500Y-94400000D03*
X142162500Y-95200000D03*
X142162500Y-96000000D03*
X142162500Y-96800000D03*
%TD*%
D12*
%TO.C,C15*%
X137850825Y-87797533D03*
X135775825Y-87797533D03*
%TD*%
%TO.C,C2*%
X150500000Y-95500000D03*
X148425000Y-95500000D03*
%TD*%
D15*
%TO.C,Q1*%
X148550000Y-89625000D03*
X150450000Y-89625000D03*
X149500000Y-91500000D03*
%TD*%
D16*
%TO.C,R1*%
X150500000Y-87500000D03*
X148500000Y-87500000D03*
%TD*%
D17*
%TO.C,R6*%
X144000000Y-96500000D03*
X146000000Y-96500000D03*
%TD*%
D18*
%TO.C,C13*%
X133962500Y-100500000D03*
X136037500Y-100500000D03*
%TD*%
D12*
%TO.C,C18*%
X146113679Y-98500000D03*
X144038679Y-98500000D03*
%TD*%
D10*
%TO.C,R7*%
X144500000Y-93500000D03*
X144500000Y-91500000D03*
%TD*%
D12*
%TO.C,C16*%
X135537500Y-85500000D03*
X133462500Y-85500000D03*
%TD*%
%TO.C,C14*%
X140037500Y-100500000D03*
X137962500Y-100500000D03*
%TD*%
M02*
