%TF.GenerationSoftware,KiCad,Pcbnew,9.0.7*%
%TF.CreationDate,2026-03-30T19:46:50+02:00*%
%TF.ProjectId,PicoBalloon_2026_v1,5069636f-4261-46c6-9c6f-6f6e5f323032,rev?*%
%TF.SameCoordinates,Original*%
%TF.FileFunction,Soldermask,Top*%
%TF.FilePolarity,Negative*%
%FSLAX46Y46*%
G04 Gerber Fmt 4.6, Leading zero omitted, Abs format (unit mm)*
G04 Created by KiCad (PCBNEW 9.0.7) date 2026-03-30 19:46:50*
%MOMM*%
%LPD*%
G01*
G04 APERTURE LIST*
G04 Aperture macros list*
%AMRoundRect*
0 Rectangle with rounded corners*
0 $1 Rounding radius*
0 $2 $3 $4 $5 $6 $7 $8 $9 X,Y pos of 4 corners*
0 Add a 4 corners polygon primitive as box body*
4,1,4,$2,$3,$4,$5,$6,$7,$8,$9,$2,$3,0*
0 Add four circle primitives for the rounded corners*
1,1,$1+$1,$2,$3*
1,1,$1+$1,$4,$5*
1,1,$1+$1,$6,$7*
1,1,$1+$1,$8,$9*
0 Add four rect primitives between the rounded corners*
20,1,$1+$1,$2,$3,$4,$5,0*
20,1,$1+$1,$4,$5,$6,$7,0*
20,1,$1+$1,$6,$7,$8,$9,0*
20,1,$1+$1,$8,$9,$2,$3,0*%
G04 Aperture macros list end*
%ADD10R,1.000000X1.000000*%
%ADD11C,1.000000*%
%ADD12R,1.700000X1.700000*%
%ADD13RoundRect,0.250000X0.337500X0.475000X-0.337500X0.475000X-0.337500X-0.475000X0.337500X-0.475000X0*%
%ADD14RoundRect,0.250000X-0.337500X-0.475000X0.337500X-0.475000X0.337500X0.475000X-0.337500X0.475000X0*%
%ADD15RoundRect,0.250000X0.450000X-0.350000X0.450000X0.350000X-0.450000X0.350000X-0.450000X-0.350000X0*%
%ADD16RoundRect,0.317500X-1.157500X-0.317500X1.157500X-0.317500X1.157500X0.317500X-1.157500X0.317500X0*%
%ADD17RoundRect,0.150000X-0.587500X-0.150000X0.587500X-0.150000X0.587500X0.150000X-0.587500X0.150000X0*%
%ADD18C,1.500000*%
G04 APERTURE END LIST*
D10*
%TO.C,J9*%
X133595000Y-102500000D03*
D11*
X134865000Y-102500000D03*
X136135000Y-102500000D03*
X137405000Y-102500000D03*
%TD*%
D12*
%TO.C,J3*%
X129500000Y-101000000D03*
%TD*%
D10*
%TO.C,J13*%
X150000000Y-99500000D03*
%TD*%
D13*
%TO.C,C4*%
X150537500Y-80500000D03*
X148462500Y-80500000D03*
%TD*%
%TO.C,C3*%
X150537500Y-82500000D03*
X148462500Y-82500000D03*
%TD*%
D14*
%TO.C,C5*%
X144425000Y-82500000D03*
X146500000Y-82500000D03*
%TD*%
D15*
%TO.C,R2*%
X142362500Y-79950000D03*
X142362500Y-77950000D03*
%TD*%
D16*
%TO.C,U2*%
X133225000Y-85500000D03*
X133225000Y-87500000D03*
X133225000Y-89500000D03*
X133225000Y-91500000D03*
X133225000Y-93500000D03*
X133225000Y-95500000D03*
X133225000Y-97500000D03*
X133225000Y-99500000D03*
X148275000Y-99500000D03*
X148275000Y-97500000D03*
X148275000Y-95500000D03*
X148275000Y-93500000D03*
X148275000Y-91500000D03*
X148275000Y-89500000D03*
X148275000Y-87500000D03*
X148275000Y-85500000D03*
%TD*%
D12*
%TO.C,J12*%
X129500000Y-73500000D03*
%TD*%
D10*
%TO.C,J5*%
X137000000Y-60000000D03*
D11*
X138270000Y-60000000D03*
%TD*%
D17*
%TO.C,Q2*%
X144562500Y-78050000D03*
X144562500Y-79950000D03*
X146437500Y-79000000D03*
%TD*%
D10*
%TO.C,J11*%
X135500000Y-147040000D03*
D11*
X135500000Y-145770000D03*
X135500000Y-144500000D03*
%TD*%
D10*
%TO.C,J8*%
X150000000Y-97500000D03*
%TD*%
%TO.C,J7*%
X133500000Y-56000000D03*
D11*
X133500000Y-54730000D03*
%TD*%
D10*
%TO.C,J6*%
X137500000Y-56000000D03*
D11*
X137500000Y-54730000D03*
%TD*%
D10*
%TO.C,J4*%
X134000000Y-60000000D03*
D11*
X132730000Y-60000000D03*
%TD*%
D18*
X150000000Y-74000000D03*
X129500000Y-71500000D03*
G36*
X139443039Y-102019685D02*
G01*
X139488794Y-102072489D01*
X139500000Y-102124000D01*
X139500000Y-102876000D01*
X139480315Y-102943039D01*
X139427511Y-102988794D01*
X139376000Y-103000000D01*
X131624000Y-103000000D01*
X131556961Y-102980315D01*
X131511206Y-102927511D01*
X131500000Y-102876000D01*
X131500000Y-102124000D01*
X131519685Y-102056961D01*
X131572489Y-102011206D01*
X131624000Y-102000000D01*
X139376000Y-102000000D01*
X139443039Y-102019685D01*
G37*
G36*
X138001223Y-53000024D02*
G01*
X138109336Y-53002144D01*
X138126303Y-53003647D01*
X138341068Y-53037663D01*
X138359988Y-53042205D01*
X138565629Y-53109021D01*
X138583606Y-53116467D01*
X138776264Y-53214631D01*
X138792855Y-53224798D01*
X138967786Y-53351894D01*
X138982581Y-53364531D01*
X139135468Y-53517418D01*
X139148105Y-53532213D01*
X139275201Y-53707144D01*
X139285368Y-53723735D01*
X139383532Y-53916393D01*
X139390978Y-53934370D01*
X139457794Y-54140011D01*
X139462336Y-54158931D01*
X139496352Y-54373696D01*
X139497855Y-54390662D01*
X139499976Y-54498776D01*
X139500000Y-54501208D01*
X139500000Y-61376000D01*
X139480315Y-61443039D01*
X139427511Y-61488794D01*
X139376000Y-61500000D01*
X131624000Y-61500000D01*
X131556961Y-61480315D01*
X131511206Y-61427511D01*
X131500000Y-61376000D01*
X131500000Y-54501208D01*
X131500024Y-54498777D01*
X131502144Y-54390663D01*
X131503647Y-54373696D01*
X131537663Y-54158931D01*
X131542205Y-54140011D01*
X131609021Y-53934370D01*
X131616467Y-53916393D01*
X131714631Y-53723735D01*
X131724798Y-53707144D01*
X131851894Y-53532213D01*
X131864531Y-53517418D01*
X132017418Y-53364531D01*
X132032213Y-53351894D01*
X132207144Y-53224798D01*
X132223735Y-53214631D01*
X132416393Y-53116467D01*
X132434370Y-53109021D01*
X132640011Y-53042205D01*
X132658931Y-53037663D01*
X132873696Y-53003647D01*
X132890663Y-53002144D01*
X132998777Y-53000024D01*
X133001208Y-53000000D01*
X137998792Y-53000000D01*
X138001223Y-53000024D01*
G37*
M02*
